<svg data-name="Layer 1" xmlns="http://www.w3.org/2000/svg" viewBox="0 0 128 128"><path d="M113.957 43.63A50.891 50.891 0 0013.138 55.052c.104 2.628.468 70.508.468 70.508l33.33-24.3a50.872 50.872 0 0067.021-57.63zM61.791 25.522a6.79 6.79 0 11-6.79 6.79 6.784 6.784 0 016.79-6.79zm9.913 57.005H56.302a3.44 3.44 0 01-2.446-1.015 3.486 3.486 0 01-1.015-2.445 3.442 3.442 0 013.46-3.46h2.16V53.23h-.416a4.052 4.052 0 01-.703-8.04c.156-.026 4.58-.884 8.066-1.587a3.492 3.492 0 014.163 3.435v28.567h2.133a3.46 3.46 0 110 6.92z" fill="currentColor"/></svg>