<svg viewBox="0 0 22 18" width="22" height="18" xmlns="http://www.w3.org/2000/svg"><g fill="none" fill-rule="evenodd"><path d="M-1-4h24v24H-1z"/><path d="M16.5.5C14.55.5 12.45.9 11 2 9.55.9 7.45.5 5.5.5c-1.45 0-2.99.22-4.28.79C.49 1.62 0 2.33 0 3.14v11.28c0 1.3 1.22 2.26 2.48 1.94.98-.25 2.02-.36 3.02-.36 1.56 0 3.22.26 4.56.92.6.3 1.28.3 1.87 0 1.34-.67 3-.92 4.56-.92 1 0 2.04.11 3.02.36 1.26.33 2.48-.63 2.48-1.94V3.14c0-.81-.49-1.52-1.22-1.85C19.49.72 17.95.5 16.5.5zM20 13.23c0 .63-.58 1.09-1.2.98-.75-.14-1.53-.2-2.3-.2-1.7 0-4.15.65-5.5 1.5V4c1.35-.85 3.8-1.5 5.5-1.5.92 0 1.83.09 2.7.28.46.1.8.51.8.98v9.47z" fill="currentColor"/></g></svg>
