<svg viewBox="0 0 512 512" height="512" width="512" xmlns="http://www.w3.org/2000/svg"><path d="M256 .268L120.5 76.893v136.286L0 281.321v153.786l135.5 76.625L256 443.59l120.5 68.143L512 435.107V145.036zM150.5 366.964l90.5-51.178v101.822l-90.5 51.178zm0-255.607l90.5 51.178v101.821l-90.5-51.178zM271 179.5l90.5 51.178v238.107L271 417.607zm105.5 25.196l-90.027-50.911 90.026-50.911 90.028 50.911zM346.027 85.643L256 136.554l-90.028-50.911L256 34.732zM135.5 239.161l90.027 50.91-90.027 50.91-90.027-50.91zM30 315.786l90.5 51.178v101.821L30 417.607zm361.5 152.999V230.679l90.5-51.178v238.107z"/></svg>
