<svg viewBox="0 0 24 24" width="24" height="24" fill="none" xmlns="http://www.w3.org/2000/svg"><path fill-rule="evenodd" clip-rule="evenodd" d="M3 5a1 1 0 00-1 1v9.288l1.558-3.506A3 3 0 016.3 10H19V9a1 1 0 00-1-1h-7a1 1 0 01-.707-.293L7.879 5.293A1 1 0 007.172 5H3zm18 5.001c2.128.052 3.535 2.257 2.664 4.217l-2.222 5A3 3 0 0118.7 21H3a3 3 0 01-3-3V6a3 3 0 013-3h4.172a3 3 0 012.12.879L11.415 6H18a3 3 0 013 3v1.001zM6.3 12a1 1 0 00-.914.594L2.58 18.908c.128.059.27.092.42.092h15.7a1 1 0 00.914-.594l2.222-5A1 1 0 0020.923 12H6.3z" fill="currentColor"/></svg>
