<svg version="1.1" id="Icons" xmlns="http://www.w3.org/2000/svg" x="0" y="0" viewBox="0 0 32 32" xml:space="preserve"><style></style><g fill="currentColor"><path d="M14 3H4c-.6 0-1 .4-1 1v10c0 .6.4 1 1 1h10c.6 0 1-.4 1-1V4c0-.6-.4-1-1-1zM14 17H4c-.6 0-1 .4-1 1v10c0 .6.4 1 1 1h10c.6 0 1-.4 1-1V18c0-.6-.4-1-1-1zM28 3H18c-.6 0-1 .4-1 1v10c0 .6.4 1 1 1h10c.6 0 1-.4 1-1V4c0-.6-.4-1-1-1zM27 22h-3v-3c0-.6-.4-1-1-1s-1 .4-1 1v3h-3c-.6 0-1 .4-1 1s.4 1 1 1h3v3c0 .6.4 1 1 1s1-.4 1-1v-3h3c.6 0 1-.4 1-1s-.4-1-1-1z"/></g></svg>